# Blender 4.5.2 LTS
# www.blender.org
mtllib cable_neo.mtl
o Core
v -0.187500 0.125000 -0.187500
v -0.187500 -0.125000 -0.187500
v -0.187500 0.125000 0.187500
v -0.187500 -0.125000 0.187500
v -0.187500 -0.187500 -0.125000
v -0.187500 -0.187500 0.125000
v 0.125000 -0.187500 -0.187500
v -0.125000 -0.187500 -0.187500
v 0.187500 0.125000 0.187500
v 0.187500 -0.125000 0.187500
v 0.187500 0.125000 -0.187500
v 0.187500 -0.125000 -0.187500
v 0.187500 -0.187500 0.125000
v 0.187500 -0.187500 -0.125000
v -0.125000 -0.187500 0.187500
v 0.125000 -0.187500 0.187500
v 0.187500 0.187500 0.125000
v 0.187500 0.187500 -0.125000
v -0.187500 0.187500 0.125000
v -0.187500 0.187500 -0.125000
v 0.125000 0.187500 0.187500
v -0.125000 0.187500 0.187500
v 0.125000 0.187500 -0.187500
v -0.125000 0.187500 -0.187500
vn -0.0000 -1.0000 -0.0000
vn -1.0000 -0.0000 -0.0000
vn -0.0000 -0.0000 -1.0000
vn 1.0000 -0.0000 -0.0000
vn -0.0000 -0.0000 1.0000
vn -0.0000 1.0000 -0.0000
vn 0.5774 0.5774 -0.5774
vn -0.5774 0.5774 -0.5774
vn -0.5774 0.5774 0.5774
vn 0.5774 0.5774 0.5774
vn 0.5774 -0.5774 -0.5774
vn -0.5774 -0.5774 -0.5774
vn -0.5774 -0.5774 0.5774
vn 0.5774 -0.5774 0.5774
vt 1.000000 0.312500
vt 0.625000 0.312500
vt 0.625000 0.062500
vt 1.000000 0.062500
vt 0.937500 0.375000
vt 0.687500 0.375000
vt 0.687500 0.000000
vt 0.937500 0.000000
vt 0.625000 0.375000
vt 1.000000 0.375000
vt 0.625000 0.000000
vt 1.000000 0.000000
s 1
usemtl m_f0f4d331-23c3-6623-e258-99bf270366bb
f 5/1/1 14/2/1 13/3/1
f 5/1/1 13/3/1 6/4/1
f 8/5/1 7/6/1 14/2/1
f 8/5/1 14/2/1 5/1/1
f 16/7/1 15/8/1 6/4/1
f 16/7/1 6/4/1 13/3/1
f 3/1/2 1/2/2 2/3/2
f 3/1/2 2/3/2 4/4/2
f 19/5/2 20/6/2 1/2/2
f 19/5/2 1/2/2 3/1/2
f 5/7/2 6/8/2 4/4/2
f 5/7/2 4/4/2 2/3/2
f 1/1/3 11/2/3 12/3/3
f 1/1/3 12/3/3 2/4/3
f 24/5/3 23/6/3 11/2/3
f 24/5/3 11/2/3 1/1/3
f 7/7/3 8/8/3 2/4/3
f 7/7/3 2/4/3 12/3/3
f 11/1/4 9/2/4 10/3/4
f 11/1/4 10/3/4 12/4/4
f 18/5/4 17/6/4 9/2/4
f 18/5/4 9/2/4 11/1/4
f 13/7/4 14/8/4 12/4/4
f 13/7/4 12/4/4 10/3/4
f 9/1/5 3/2/5 4/3/5
f 9/1/5 4/3/5 10/4/5
f 21/5/5 22/6/5 3/2/5
f 21/5/5 3/2/5 9/1/5
f 15/7/5 16/8/5 10/4/5
f 15/7/5 10/4/5 4/3/5
f 19/1/6 17/2/6 18/3/6
f 19/1/6 18/3/6 20/4/6
f 22/5/6 21/6/6 17/2/6
f 22/5/6 17/2/6 19/1/6
f 23/7/6 24/8/6 20/4/6
f 23/7/6 20/4/6 18/3/6
f 18/6/7 11/9/7 23/2/7
f 24/10/8 1/5/8 20/1/8
f 19/2/9 3/6/9 22/9/9
f 21/1/10 9/10/10 17/5/10
f 12/7/11 14/3/11 7/11/11
f 2/12/12 8/4/12 5/8/12
f 4/11/13 6/7/13 15/3/13
f 10/8/14 16/12/14 13/4/14
o CX
v 0.500000 0.125000 -0.187500
v -0.500000 0.125000 -0.187500
v 0.500000 -0.125000 -0.187500
v -0.500000 -0.125000 -0.187500
v 0.500000 0.125000 0.187500
v -0.500000 0.125000 0.187500
v 0.500000 -0.125000 0.187500
v -0.500000 -0.125000 0.187500
v 0.500000 0.187500 -0.125000
v -0.500000 0.187500 -0.125000
v 0.500000 0.187500 0.125000
v -0.500000 0.187500 0.125000
v 0.500000 -0.187500 -0.125000
v 0.500000 -0.187500 0.125000
v -0.500000 -0.187500 -0.125000
v -0.500000 -0.187500 0.125000
vn -0.0000 -0.0000 -1.0000
vn -0.0000 -0.0000 1.0000
vn -0.0000 1.0000 -0.0000
vn -0.0000 -1.0000 -0.0000
vn 1.0000 -0.0000 -0.0000
vn -1.0000 -0.0000 -0.0000
vn -0.0000 0.7071 -0.7071
vn -0.0000 0.7071 0.7071
vn -0.0000 -0.7071 -0.7071
vn -0.0000 -0.7071 0.7071
vt 0.562500 1.000000
vt 0.562500 0.000000
vt 0.312500 0.000000
vt 0.312500 1.000000
vt 0.250000 0.000000
vt 0.000000 0.000000
vt 0.000000 1.000000
vt 0.250000 1.000000
vt 1.000000 0.062500
vt 1.000000 0.312500
vt 0.625000 0.312500
vt 0.625000 0.062500
vt 0.937500 0.375000
vt 0.687500 0.375000
vt 0.625000 1.000000
vt 0.625000 0.000000
vt 0.687500 0.000000
vt 0.937500 0.000000
s 1
usemtl m_f0f4d331-23c3-6623-e258-99bf270366bb
f 26/13/15 25/14/15 27/15/15
f 26/13/15 27/15/15 28/16/15
f 31/14/16 29/15/16 30/16/16
f 31/14/16 30/16/16 32/13/16
f 35/17/17 33/18/17 34/19/17
f 35/17/17 34/19/17 36/20/17
f 39/20/18 37/17/18 38/18/18
f 39/20/18 38/18/18 40/19/18
f 27/21/19 25/22/19 29/23/19
f 27/21/19 29/23/19 31/24/19
f 30/22/20 26/23/20 28/24/20
f 30/22/20 28/24/20 32/21/20
f 33/25/19 35/26/19 29/23/19
f 33/25/19 29/23/19 25/22/19
f 34/27/21 33/28/21 25/14/21
f 34/27/21 25/14/21 26/13/21
f 36/25/20 34/26/20 26/23/20
f 36/25/20 26/23/20 30/22/20
f 35/17/22 36/20/22 30/16/22
f 35/17/22 30/16/22 29/15/22
f 37/17/23 39/20/23 28/16/23
f 37/17/23 28/16/23 27/15/23
f 38/29/19 37/30/19 27/21/19
f 38/29/19 27/21/19 31/24/19
f 40/27/24 38/28/24 31/14/24
f 40/27/24 31/14/24 32/13/24
f 39/29/20 40/30/20 32/21/20
f 39/29/20 32/21/20 28/24/20
o CY
v 0.187500 -0.500000 0.125000
v 0.187500 0.500000 0.125000
v 0.187500 -0.500000 -0.125000
v 0.187500 0.500000 -0.125000
v -0.187500 -0.500000 0.125000
v -0.187500 0.500000 0.125000
v -0.187500 -0.500000 -0.125000
v -0.187500 0.500000 -0.125000
v 0.125000 -0.500000 0.187500
v 0.125000 0.500000 0.187500
v -0.125000 -0.500000 0.187500
v -0.125000 0.500000 0.187500
v 0.125000 -0.500000 -0.187500
v -0.125000 -0.500000 -0.187500
v 0.125000 0.500000 -0.187500
v -0.125000 0.500000 -0.187500
vn 1.0000 -0.0000 -0.0000
vn -1.0000 -0.0000 -0.0000
vn -0.0000 -0.0000 1.0000
vn -0.0000 -0.0000 -1.0000
vn -0.0000 -1.0000 -0.0000
vn -0.0000 1.0000 -0.0000
vn 0.7071 -0.0000 0.7071
vn -0.7071 -0.0000 0.7071
vn 0.7071 -0.0000 -0.7071
vn -0.7071 -0.0000 -0.7071
vt 0.562500 1.000000
vt 0.562500 0.000000
vt 0.312500 0.000000
vt 0.312500 1.000000
vt 0.250000 0.000000
vt 0.000000 0.000000
vt 0.000000 1.000000
vt 0.250000 1.000000
vt 1.000000 0.062500
vt 1.000000 0.312500
vt 0.625000 0.312500
vt 0.625000 0.062500
vt 0.937500 0.375000
vt 0.687500 0.375000
vt 0.625000 1.000000
vt 0.625000 0.000000
vt 0.687500 0.000000
vt 0.937500 0.000000
s 1
usemtl m_f0f4d331-23c3-6623-e258-99bf270366bb
f 42/31/25 41/32/25 43/33/25
f 42/31/25 43/33/25 44/34/25
f 47/32/26 45/33/26 46/34/26
f 47/32/26 46/34/26 48/31/26
f 51/35/27 49/36/27 50/37/27
f 51/35/27 50/37/27 52/38/27
f 55/38/28 53/35/28 54/36/28
f 55/38/28 54/36/28 56/37/28
f 43/39/29 41/40/29 45/41/29
f 43/39/29 45/41/29 47/42/29
f 46/40/30 42/41/30 44/42/30
f 46/40/30 44/42/30 48/39/30
f 49/43/29 51/44/29 45/41/29
f 49/43/29 45/41/29 41/40/29
f 50/45/31 49/46/31 41/32/31
f 50/45/31 41/32/31 42/31/31
f 52/43/30 50/44/30 42/41/30
f 52/43/30 42/41/30 46/40/30
f 51/35/32 52/38/32 46/34/32
f 51/35/32 46/34/32 45/33/32
f 53/35/33 55/38/33 44/34/33
f 53/35/33 44/34/33 43/33/33
f 54/47/29 53/48/29 43/39/29
f 54/47/29 43/39/29 47/42/29
f 56/45/34 54/46/34 47/32/34
f 56/45/34 47/32/34 48/31/34
f 55/47/30 56/48/30 48/39/30
f 55/47/30 48/39/30 44/42/30
o CZ
v 0.187500 0.125000 0.500000
v 0.187500 0.125000 -0.500000
v 0.187500 -0.125000 0.500000
v 0.187500 -0.125000 -0.500000
v -0.187500 0.125000 0.500000
v -0.187500 0.125000 -0.500000
v -0.187500 -0.125000 0.500000
v -0.187500 -0.125000 -0.500000
v 0.125000 0.187500 0.500000
v 0.125000 0.187500 -0.500000
v -0.125000 0.187500 0.500000
v -0.125000 0.187500 -0.500000
v 0.125000 -0.187500 0.500000
v -0.125000 -0.187500 0.500000
v 0.125000 -0.187500 -0.500000
v -0.125000 -0.187500 -0.500000
vn 1.0000 -0.0000 -0.0000
vn -1.0000 -0.0000 -0.0000
vn -0.0000 1.0000 -0.0000
vn -0.0000 -1.0000 -0.0000
vn -0.0000 -0.0000 1.0000
vn -0.0000 -0.0000 -1.0000
vn 0.7071 0.7071 -0.0000
vn -0.7071 0.7071 -0.0000
vn 0.7071 -0.7071 -0.0000
vn -0.7071 -0.7071 -0.0000
vt 0.562500 1.000000
vt 0.562500 0.000000
vt 0.312500 0.000000
vt 0.312500 1.000000
vt 0.250000 0.000000
vt 0.000000 0.000000
vt 0.000000 1.000000
vt 0.250000 1.000000
vt 1.000000 0.062500
vt 1.000000 0.312500
vt 0.625000 0.312500
vt 0.625000 0.062500
vt 0.937500 0.375000
vt 0.687500 0.375000
vt 0.625000 1.000000
vt 0.625000 0.000000
vt 0.687500 0.000000
vt 0.937500 0.000000
s 1
usemtl m_f0f4d331-23c3-6623-e258-99bf270366bb
f 58/49/35 57/50/35 59/51/35
f 58/49/35 59/51/35 60/52/35
f 63/50/36 61/51/36 62/52/36
f 63/50/36 62/52/36 64/49/36
f 67/53/37 65/54/37 66/55/37
f 67/53/37 66/55/37 68/56/37
f 71/56/38 69/53/38 70/54/38
f 71/56/38 70/54/38 72/55/38
f 59/57/39 57/58/39 61/59/39
f 59/57/39 61/59/39 63/60/39
f 62/58/40 58/59/40 60/60/40
f 62/58/40 60/60/40 64/57/40
f 65/61/39 67/62/39 61/59/39
f 65/61/39 61/59/39 57/58/39
f 66/63/41 65/64/41 57/50/41
f 66/63/41 57/50/41 58/49/41
f 68/61/40 66/62/40 58/59/40
f 68/61/40 58/59/40 62/58/40
f 67/53/42 68/56/42 62/52/42
f 67/53/42 62/52/42 61/51/42
f 69/53/43 71/56/43 60/52/43
f 69/53/43 60/52/43 59/51/43
f 70/65/39 69/66/39 59/57/39
f 70/65/39 59/57/39 63/60/39
f 72/63/44 70/64/44 63/50/44
f 72/63/44 63/50/44 64/49/44
f 71/65/40 72/66/40 64/57/40
f 71/65/40 64/57/40 60/60/40
o negX
v -0.125000 0.125000 -0.187500
v -0.500000 0.125000 -0.187500
v -0.125000 -0.125000 -0.187500
v -0.500000 -0.125000 -0.187500
v -0.125000 0.125000 0.187500
v -0.500000 0.125000 0.187500
v -0.125000 -0.125000 0.187500
v -0.500000 -0.125000 0.187500
v -0.125000 0.187500 -0.125000
v -0.500000 0.187500 -0.125000
v -0.125000 0.187500 0.125000
v -0.500000 0.187500 0.125000
v -0.125000 -0.187500 -0.125000
v -0.125000 -0.187500 0.125000
v -0.500000 -0.187500 -0.125000
v -0.500000 -0.187500 0.125000
vn -0.0000 -0.0000 -1.0000
vn -0.0000 -0.0000 1.0000
vn -0.0000 1.0000 -0.0000
vn -0.0000 -1.0000 -0.0000
vn -1.0000 -0.0000 -0.0000
vn -0.0000 0.7071 -0.7071
vn -0.0000 0.7071 0.7071
vn -0.0000 -0.7071 -0.7071
vn -0.0000 -0.7071 0.7071
vt 0.562500 0.375000
vt 0.562500 0.000000
vt 0.312500 0.000000
vt 0.312500 0.375000
vt 0.250000 0.000000
vt 0.000000 0.000000
vt 0.000000 0.375000
vt 0.250000 0.375000
vt 1.000000 0.312500
vt 0.625000 0.312500
vt 0.625000 0.062500
vt 1.000000 0.062500
vt 0.625000 0.375000
vt 0.625000 0.000000
vt 0.937500 0.375000
vt 0.687500 0.375000
vt 0.687500 0.000000
vt 0.937500 0.000000
s 1
usemtl m_f0f4d331-23c3-6623-e258-99bf270366bb
f 74/67/45 73/68/45 75/69/45
f 74/67/45 75/69/45 76/70/45
f 79/68/46 77/69/46 78/70/46
f 79/68/46 78/70/46 80/67/46
f 83/71/47 81/72/47 82/73/47
f 83/71/47 82/73/47 84/74/47
f 87/74/48 85/71/48 86/72/48
f 87/74/48 86/72/48 88/73/48
f 78/75/49 74/76/49 76/77/49
f 78/75/49 76/77/49 80/78/49
f 82/79/50 81/80/50 73/68/50
f 82/79/50 73/68/50 74/67/50
f 84/81/49 82/82/49 74/76/49
f 84/81/49 74/76/49 78/75/49
f 83/71/51 84/74/51 78/70/51
f 83/71/51 78/70/51 77/69/51
f 85/71/52 87/74/52 76/70/52
f 85/71/52 76/70/52 75/69/52
f 88/79/53 86/80/53 79/68/53
f 88/79/53 79/68/53 80/67/53
f 87/83/49 88/84/49 80/78/49
f 87/83/49 80/78/49 76/77/49
o negY
v 0.187500 -0.125000 -0.125000
v 0.187500 -0.500000 -0.125000
v 0.187500 -0.125000 0.125000
v 0.187500 -0.500000 0.125000
v -0.187500 -0.125000 -0.125000
v -0.187500 -0.500000 -0.125000
v -0.187500 -0.125000 0.125000
v -0.187500 -0.500000 0.125000
v 0.125000 -0.125000 -0.187500
v 0.125000 -0.500000 -0.187500
v -0.125000 -0.125000 -0.187500
v -0.125000 -0.500000 -0.187500
v 0.125000 -0.125000 0.187500
v -0.125000 -0.125000 0.187500
v 0.125000 -0.500000 0.187500
v -0.125000 -0.500000 0.187500
vn 1.0000 -0.0000 -0.0000
vn -1.0000 -0.0000 -0.0000
vn -0.0000 -0.0000 -1.0000
vn -0.0000 -0.0000 1.0000
vn -0.0000 -1.0000 -0.0000
vn 0.7071 -0.0000 -0.7071
vn -0.7071 -0.0000 -0.7071
vn 0.7071 -0.0000 0.7071
vn -0.7071 -0.0000 0.7071
vt 0.562500 0.375000
vt 0.562500 0.000000
vt 0.312500 0.000000
vt 0.312500 0.375000
vt 0.250000 0.000000
vt 0.000000 0.000000
vt 0.000000 0.375000
vt 0.250000 0.375000
vt 1.000000 0.312500
vt 0.625000 0.312500
vt 0.625000 0.062500
vt 1.000000 0.062500
vt 0.625000 0.375000
vt 0.625000 0.000000
vt 0.937500 0.375000
vt 0.687500 0.375000
vt 0.687500 0.000000
vt 0.937500 0.000000
s 1
usemtl m_f0f4d331-23c3-6623-e258-99bf270366bb
f 90/85/54 89/86/54 91/87/54
f 90/85/54 91/87/54 92/88/54
f 95/86/55 93/87/55 94/88/55
f 95/86/55 94/88/55 96/85/55
f 99/89/56 97/90/56 98/91/56
f 99/89/56 98/91/56 100/92/56
f 103/92/57 101/89/57 102/90/57
f 103/92/57 102/90/57 104/91/57
f 94/93/58 90/94/58 92/95/58
f 94/93/58 92/95/58 96/96/58
f 98/97/59 97/98/59 89/86/59
f 98/97/59 89/86/59 90/85/59
f 100/99/58 98/100/58 90/94/58
f 100/99/58 90/94/58 94/93/58
f 99/89/60 100/92/60 94/88/60
f 99/89/60 94/88/60 93/87/60
f 101/89/61 103/92/61 92/88/61
f 101/89/61 92/88/61 91/87/61
f 104/97/62 102/98/62 95/86/62
f 104/97/62 95/86/62 96/85/62
f 103/101/58 104/102/58 96/96/58
f 103/101/58 96/96/58 92/95/58
o negZ
v -0.187500 0.125000 0.125000
v -0.187500 0.125000 0.500000
v -0.187500 -0.125000 0.125000
v -0.187500 -0.125000 0.500000
v 0.187500 0.125000 0.125000
v 0.187500 0.125000 0.500000
v 0.187500 -0.125000 0.125000
v 0.187500 -0.125000 0.500000
v -0.125000 0.187500 0.125000
v -0.125000 0.187500 0.500000
v 0.125000 0.187500 0.125000
v 0.125000 0.187500 0.500000
v -0.125000 -0.187500 0.125000
v 0.125000 -0.187500 0.125000
v -0.125000 -0.187500 0.500000
v 0.125000 -0.187500 0.500000
vn -1.0000 -0.0000 -0.0000
vn 1.0000 -0.0000 -0.0000
vn -0.0000 1.0000 -0.0000
vn -0.0000 -1.0000 -0.0000
vn -0.0000 -0.0000 1.0000
vn -0.7071 0.7071 -0.0000
vn 0.7071 0.7071 -0.0000
vn -0.7071 -0.7071 -0.0000
vn 0.7071 -0.7071 -0.0000
vt 0.562500 0.375000
vt 0.562500 0.000000
vt 0.312500 0.000000
vt 0.312500 0.375000
vt 0.250000 0.000000
vt 0.000000 0.000000
vt 0.000000 0.375000
vt 0.250000 0.375000
vt 1.000000 0.312500
vt 0.625000 0.312500
vt 0.625000 0.062500
vt 1.000000 0.062500
vt 0.625000 0.375000
vt 0.625000 0.000000
vt 0.937500 0.375000
vt 0.687500 0.375000
vt 0.687500 0.000000
vt 0.937500 0.000000
s 1
usemtl m_f0f4d331-23c3-6623-e258-99bf270366bb
f 106/103/63 105/104/63 107/105/63
f 106/103/63 107/105/63 108/106/63
f 111/104/64 109/105/64 110/106/64
f 111/104/64 110/106/64 112/103/64
f 115/107/65 113/108/65 114/109/65
f 115/107/65 114/109/65 116/110/65
f 119/110/66 117/107/66 118/108/66
f 119/110/66 118/108/66 120/109/66
f 110/111/67 106/112/67 108/113/67
f 110/111/67 108/113/67 112/114/67
f 114/115/68 113/116/68 105/104/68
f 114/115/68 105/104/68 106/103/68
f 116/117/67 114/118/67 106/112/67
f 116/117/67 106/112/67 110/111/67
f 115/107/69 116/110/69 110/106/69
f 115/107/69 110/106/69 109/105/69
f 117/107/70 119/110/70 108/106/70
f 117/107/70 108/106/70 107/105/70
f 120/115/71 118/116/71 111/104/71
f 120/115/71 111/104/71 112/103/71
f 119/119/67 120/120/67 112/114/67
f 119/119/67 112/114/67 108/113/67
o posX
v 0.125000 0.125000 0.187500
v 0.500000 0.125000 0.187500
v 0.125000 -0.125000 0.187500
v 0.500000 -0.125000 0.187500
v 0.125000 0.125000 -0.187500
v 0.500000 0.125000 -0.187500
v 0.125000 -0.125000 -0.187500
v 0.500000 -0.125000 -0.187500
v 0.125000 0.187500 0.125000
v 0.500000 0.187500 0.125000
v 0.125000 0.187500 -0.125000
v 0.500000 0.187500 -0.125000
v 0.125000 -0.187500 0.125000
v 0.125000 -0.187500 -0.125000
v 0.500000 -0.187500 0.125000
v 0.500000 -0.187500 -0.125000
vn -0.0000 -0.0000 1.0000
vn -0.0000 -0.0000 -1.0000
vn -0.0000 1.0000 -0.0000
vn -0.0000 -1.0000 -0.0000
vn 1.0000 -0.0000 -0.0000
vn -0.0000 0.7071 0.7071
vn -0.0000 0.7071 -0.7071
vn -0.0000 -0.7071 0.7071
vn -0.0000 -0.7071 -0.7071
vt 0.562500 0.375000
vt 0.562500 0.000000
vt 0.312500 0.000000
vt 0.312500 0.375000
vt 0.250000 0.000000
vt 0.000000 0.000000
vt 0.000000 0.375000
vt 0.250000 0.375000
vt 1.000000 0.312500
vt 0.625000 0.312500
vt 0.625000 0.062500
vt 1.000000 0.062500
vt 0.625000 0.375000
vt 0.625000 0.000000
vt 0.937500 0.375000
vt 0.687500 0.375000
vt 0.687500 0.000000
vt 0.937500 0.000000
s 1
usemtl m_f0f4d331-23c3-6623-e258-99bf270366bb
f 122/121/72 121/122/72 123/123/72
f 122/121/72 123/123/72 124/124/72
f 127/122/73 125/123/73 126/124/73
f 127/122/73 126/124/73 128/121/73
f 131/125/74 129/126/74 130/127/74
f 131/125/74 130/127/74 132/128/74
f 135/128/75 133/125/75 134/126/75
f 135/128/75 134/126/75 136/127/75
f 126/129/76 122/130/76 124/131/76
f 126/129/76 124/131/76 128/132/76
f 130/133/77 129/134/77 121/122/77
f 130/133/77 121/122/77 122/121/77
f 132/135/76 130/136/76 122/130/76
f 132/135/76 122/130/76 126/129/76
f 131/125/78 132/128/78 126/124/78
f 131/125/78 126/124/78 125/123/78
f 133/125/79 135/128/79 124/124/79
f 133/125/79 124/124/79 123/123/79
f 136/133/80 134/134/80 127/122/80
f 136/133/80 127/122/80 128/121/80
f 135/137/76 136/138/76 128/132/76
f 135/137/76 128/132/76 124/131/76
o posY
v 0.187500 0.125000 0.125000
v 0.187500 0.500000 0.125000
v 0.187500 0.125000 -0.125000
v 0.187500 0.500000 -0.125000
v -0.187500 0.125000 0.125000
v -0.187500 0.500000 0.125000
v -0.187500 0.125000 -0.125000
v -0.187500 0.500000 -0.125000
v 0.125000 0.125000 0.187500
v 0.125000 0.500000 0.187500
v -0.125000 0.125000 0.187500
v -0.125000 0.500000 0.187500
v 0.125000 0.125000 -0.187500
v -0.125000 0.125000 -0.187500
v 0.125000 0.500000 -0.187500
v -0.125000 0.500000 -0.187500
vn 1.0000 -0.0000 -0.0000
vn -1.0000 -0.0000 -0.0000
vn -0.0000 -0.0000 1.0000
vn -0.0000 -0.0000 -1.0000
vn -0.0000 1.0000 -0.0000
vn 0.7071 -0.0000 0.7071
vn -0.7071 -0.0000 0.7071
vn 0.7071 -0.0000 -0.7071
vn -0.7071 -0.0000 -0.7071
vt 0.562500 0.375000
vt 0.562500 0.000000
vt 0.312500 0.000000
vt 0.312500 0.375000
vt 0.250000 0.000000
vt 0.000000 0.000000
vt 0.000000 0.375000
vt 0.250000 0.375000
vt 1.000000 0.312500
vt 0.625000 0.312500
vt 0.625000 0.062500
vt 1.000000 0.062500
vt 0.625000 0.375000
vt 0.625000 0.000000
vt 0.937500 0.375000
vt 0.687500 0.375000
vt 0.687500 0.000000
vt 0.937500 0.000000
s 1
usemtl m_f0f4d331-23c3-6623-e258-99bf270366bb
f 138/139/81 137/140/81 139/141/81
f 138/139/81 139/141/81 140/142/81
f 143/140/82 141/141/82 142/142/82
f 143/140/82 142/142/82 144/139/82
f 147/143/83 145/144/83 146/145/83
f 147/143/83 146/145/83 148/146/83
f 151/146/84 149/143/84 150/144/84
f 151/146/84 150/144/84 152/145/84
f 142/147/85 138/148/85 140/149/85
f 142/147/85 140/149/85 144/150/85
f 146/151/86 145/152/86 137/140/86
f 146/151/86 137/140/86 138/139/86
f 148/153/85 146/154/85 138/148/85
f 148/153/85 138/148/85 142/147/85
f 147/143/87 148/146/87 142/142/87
f 147/143/87 142/142/87 141/141/87
f 149/143/88 151/146/88 140/142/88
f 149/143/88 140/142/88 139/141/88
f 152/151/89 150/152/89 143/140/89
f 152/151/89 143/140/89 144/139/89
f 151/155/85 152/156/85 144/150/85
f 151/155/85 144/150/85 140/149/85
o posZ
v 0.187500 0.125000 -0.125000
v 0.187500 0.125000 -0.500000
v 0.187500 -0.125000 -0.125000
v 0.187500 -0.125000 -0.500000
v -0.187500 0.125000 -0.125000
v -0.187500 0.125000 -0.500000
v -0.187500 -0.125000 -0.125000
v -0.187500 -0.125000 -0.500000
v 0.125000 0.187500 -0.125000
v 0.125000 0.187500 -0.500000
v -0.125000 0.187500 -0.125000
v -0.125000 0.187500 -0.500000
v 0.125000 -0.187500 -0.125000
v -0.125000 -0.187500 -0.125000
v 0.125000 -0.187500 -0.500000
v -0.125000 -0.187500 -0.500000
vn 1.0000 -0.0000 -0.0000
vn -1.0000 -0.0000 -0.0000
vn -0.0000 1.0000 -0.0000
vn -0.0000 -1.0000 -0.0000
vn -0.0000 -0.0000 -1.0000
vn 0.7071 0.7071 -0.0000
vn -0.7071 0.7071 -0.0000
vn 0.7071 -0.7071 -0.0000
vn -0.7071 -0.7071 -0.0000
vt 0.562500 0.375000
vt 0.562500 0.000000
vt 0.312500 0.000000
vt 0.312500 0.375000
vt 0.250000 0.000000
vt 0.000000 0.000000
vt 0.000000 0.375000
vt 0.250000 0.375000
vt 1.000000 0.312500
vt 0.625000 0.312500
vt 0.625000 0.062500
vt 1.000000 0.062500
vt 0.625000 0.375000
vt 0.625000 0.000000
vt 0.937500 0.375000
vt 0.687500 0.375000
vt 0.687500 0.000000
vt 0.937500 0.000000
s 1
usemtl m_f0f4d331-23c3-6623-e258-99bf270366bb
f 154/157/90 153/158/90 155/159/90
f 154/157/90 155/159/90 156/160/90
f 159/158/91 157/159/91 158/160/91
f 159/158/91 158/160/91 160/157/91
f 163/161/92 161/162/92 162/163/92
f 163/161/92 162/163/92 164/164/92
f 167/164/93 165/161/93 166/162/93
f 167/164/93 166/162/93 168/163/93
f 158/165/94 154/166/94 156/167/94
f 158/165/94 156/167/94 160/168/94
f 162/169/95 161/170/95 153/158/95
f 162/169/95 153/158/95 154/157/95
f 164/171/94 162/172/94 154/166/94
f 164/171/94 154/166/94 158/165/94
f 163/161/96 164/164/96 158/160/96
f 163/161/96 158/160/96 157/159/96
f 165/161/97 167/164/97 156/160/97
f 165/161/97 156/160/97 155/159/97
f 168/169/98 166/170/98 159/158/98
f 168/169/98 159/158/98 160/157/98
f 167/173/94 168/174/94 160/168/94
f 167/173/94 160/168/94 156/167/94
